<?xml version="1.0" encoding="UTF-8" standalone="no"?><!DOCTYPE svg PUBLIC "-//W3C//DTD SVG 1.1//EN" "http://www.w3.org/Graphics/SVG/1.1/DTD/svg11.dtd"><svg width="100%" height="100%" viewBox="0 0 1482 1704" version="1.1" xmlns="http://www.w3.org/2000/svg" xmlns:xlink="http://www.w3.org/1999/xlink" xml:space="preserve" xmlns:serif="http://www.serif.com/" style="fill-rule:evenodd;clip-rule:evenodd;stroke-linejoin:round;stroke-miterlimit:2;"><rect id="Artboard1" x="0" y="0" width="1481.25" height="1703.906" style="fill:none;"/><g><g transform="matrix(0.990037,-0.140811,0.140811,0.990037,3691.622804,-11368.607318)"><g transform="matrix(1604.49087,0,0,1604.49087,-3988.883835,12233.792432)"></g><text x="-4920.397px" y="12233.792px" style="font-family:'DecoTypeThuluth', 'DecoType Thuluth';font-size:1604.491px;fill:url(#_Linear1);">ر</text></g><g transform="matrix(1604.49087,0,0,1604.49087,1096.070914,1279.108667)"></g><text x="31.372px" y="1279.109px" style="font-family:'DecoTypeThuluth', 'DecoType Thuluth';font-size:1604.491px;fill:url(#_Radial2);">ف</text><g transform="matrix(1,0,0,0.887221,0,-4279.08124)"><g transform="matrix(1604.49087,0,0,1604.49087,840.284723,6062.101762)"></g><text x="378.053px" y="6062.102px" style="font-family:'DecoTypeThuluth', 'DecoType Thuluth';font-size:1604.491px;fill:url(#_Linear3);">ا</text></g><g transform="matrix(1604.49087,0,0,1604.49087,465.790507,1196.171979)"></g><text x="106.974px" y="1196.172px" style="font-family:'DecoTypeThuluth', 'DecoType Thuluth';font-size:1604.491px;fill:url(#_Linear4);">ه</text><path d="M1171.392,259.379l12.052,2.992l10.252,3.728l11.409,6.164l9.081,6.793l5.487,5.515l4.322,5.829l2.107,3.179l3.687,6.251l3.365,7.837l3.252,11.116l2.709,16.509l2.588,22.539l1.752,18.516l2.087,11.43l2.515,9.316l3.894,7.943l4.429,5.301l7.495,6.471l6.336,4.036l22.504,11.164l12.674,8.071l8.13,6.05l8.759,8.379l4.43,5.3l8.645,11.658l4.53,7.522l2.315,4.872l3.051,6.672l4.723,14.716l2.094,8.679l1.866,15.238l0.079,10.472l-0.764,9.202l-4.177,20.617l-2.771,8.244l-5.321,12.681l-7.014,12.888l-8.6,12.567l-10.294,12.773l-7.422,6.752l-5.407,4.958l-5.936,4.851l-7.844,6.116l-17.801,11.803l-4.979,2.843l-8.686,4.844l-12.18,5.788l-7.837,3.365l-6.565,2.522l-7.73,2.837l-10.058,3.465l-0.742,0.95l14.059,3.95l10.781,3.835l18.282,7.556l14.366,7.864l11.724,7.329l14.253,11.143l7.809,7.636l5.38,6.043l6.116,7.844l6.323,9.536l5.051,10.38l2.837,7.729l3.88,13.444l1.358,6.879l0.609,10.58l-0.222,3.808l-2.785,13.745l-3.193,7.609l-5.414,7.708l-6.786,6.33l-7.629,5.059l-9.636,4.101l-11.008,2.723l-10.159,1.244l-12.166,0.286l-12.48,-0.878l-6.979,-0.864l-21.146,-4.285l-16.596,-5.014l-4.229,-0.857l0.214,-1.057l-7.294,-2.028l-10.566,-4.893l-1.479,-0.85l3.58,6.779l4.422,8.051l2.737,5.508l5.158,9.851l3.051,6.672l10.732,23.088l4.629,9.743l5.366,11.545l4.944,10.908l3.787,8.472l3.051,6.672l3.994,10.165l4.516,13.023l2.094,8.68l1.037,8.462l-0.021,8.255l-2.142,10.571l-2.872,6.024l-4.986,5.596l-3.286,2.634l-9.422,3.043l-5.609,0.517l-10.044,-2.035l-9.508,-4.68l-8.66,-6.154l-7.494,-6.478l-7.28,-7.527l-9.702,-11.871l-4.323,-5.828l-5.166,-7.099l-6.215,-10.065l-4.844,-8.687l-5.159,-9.852l-5.366,-11.544l-4.101,-9.636l-5.888,-14.402l-5.988,-16.623l-3.465,-10.058l-4.309,-11.33l-4.523,-10.273l-3.58,-6.779l-3.158,-6.143l-4.53,-7.522l-2.844,-4.979l-7.587,-11.444l-3.48,-4.558l-4.322,-5.828l-7.066,-8.587l-6.223,-7.315l-8.123,-8.801l-10.974,-11.029l-5.065,-4.879l-10.238,-9.229l-10.345,-8.7l-10.981,-8.279l-8.13,-6.05l-1.686,-2.543l7.08,3.086l14.789,8.5l7.287,4.778l17.424,11.786l13.831,10.507l16.361,14.322l6.015,5.622l7.702,8.164l8.123,8.801l7.487,9.222l4.852,5.936l13.489,20.344l3.58,6.779l2.844,4.979l3.58,6.779l5.051,10.38l6.209,12.815l3.473,7.308l5.473,11.015l5.58,10.487l4.423,8.05l1.265,1.907l-0.214,1.058l1.057,0.214l2.422,4.343l-0.214,1.058l1.058,0.214l2.843,4.979l9.695,14.623l4.851,5.934l4.323,5.828l6.751,7.427l6.016,5.618l7.072,5.839l5.387,3.291l-3.351,-13.337l-3.044,-9.422l-5.151,-12.602l-4.945,-10.908l-3.365,-7.837l-9.045,-20.545l-4.945,-10.908l-4.837,-11.437l-4.945,-10.908l-5.366,-11.544l-3.473,-7.308l-10.732,-23.088l-3.894,-7.943l-4.316,-8.579l-3.894,-7.944l-5.473,-11.015l-3.894,-7.943l-3.158,-6.144l-2.737,-5.507l-4.315,-8.58l-5.473,-11.015l-3.158,-6.144l1.164,-0.315l5.172,4.35l10.874,8.808l10.345,8.701l10.981,8.279l4.751,3.714l11.724,7.329l10.459,5.421l18.281,7.557l11.309,3.942l6.237,1.814l15.645,4.271l10.044,2.035l15.545,2.049l10.894,0.556l7.194,-0.193l5.079,-0.622l7.515,-1.78l6.037,-2.63l4.029,-3.586l2.442,-3.908l1.821,-8.987l-1.036,-8.465l-3.251,-11.116l-4.523,-10.272l-4.109,-6.886l-3.479,-4.558l-6.223,-7.315l-6.859,-6.893l-9.923,-8.064l-12.146,-7.965l-17.432,-9.035l-15.745,-6.492l-15.431,-5.328l-14.06,-3.949l-17.867,-4.171l-1.165,0.315l-7.401,-1.5l-30.454,-4.52l-25.275,-2.92l-1.164,0.315l-9.623,-1.399l-15.652,-1.52l-5.922,-0.65l0.214,-1.057l20.217,-4.71l10.373,-2.301l2.221,-0.1l0.743,-0.951l7.937,-1.143l17.252,-3.659l12.915,-3.987l10.058,-3.466l10.165,-3.994l8.473,-3.786l12.073,-5.259l10.908,-4.944l12.816,-6.209l6.779,-3.579l8.051,-4.423l12.501,-7.373l8.265,-5.48l5.936,-4.851l6.358,-4.216l5.936,-4.851l7.422,-6.751l9.758,-10.131l6.579,-8.023l6.371,-9.716l5.207,-9.401l2.343,-6.13l2.45,-6.659l2.464,-12.159l0.456,-13.116l-1.244,-10.159l-3.351,-13.337l-4.208,-9.108l-2.215,-2.651l-2.422,-4.343l-5.801,-6.679l-6.016,-5.622l-7.708,-5.414l-19.861,-10.629l-12.781,-7.543l-9.609,-6.9l-6.966,-6.365l-2.744,-2.757l-4.744,-6.465l-3.479,-4.558l-4.109,-6.886l-4.523,-10.272l-3.88,-13.444l-2.395,-15.344l-2.166,-21.903l-1.43,-20.102l-2.18,-16.402l-2.515,-9.315l-3.794,-5.722l-2.958,-1.7l0.214,-1.057l-5.494,-2.764l-7.08,-3.086l-16.917,-3.428l-13.752,-0.035l-11.959,1.98l-13.973,3.773l-12.073,5.259l-6.779,3.58l-6.25,3.687l-9.537,6.323l-4.558,3.479l-7.951,6.645l-8.165,7.702l-6.893,6.859l-6.472,7.494l-7.321,8.974l-3.715,4.75l-7.857,11.617l-8.286,13.731l-8.078,15.424l-7.871,17.117l-6.6,16.274l-5.006,13.845l-6.614,21.775l-2.35,8.88l-5.57,27.49l-2.27,19.353l-0.777,14.702l0.072,13.223l0.909,17.245l1.659,13.545l2.087,11.43l3.351,13.337l4.094,12.387l2.208,5.401l3.887,10.693l5.051,10.379l3.58,6.78l3.687,6.25l2.844,4.979l8.009,12.08l3.479,4.557l6.116,7.844l5.801,6.679l4.43,5.3l2.743,2.757l9.181,9.014l12.667,10.822l11.402,8.915l14.574,9.557l0.737,1.8l-7.716,-2.664l-17.646,-7.978l-17.746,-10.2l-11.088,-7.75l-8.974,-7.322l-11.188,-9.972l-9.18,-9.015l-5.379,-6.043l-5.694,-7.208l-4.851,-5.936l-6.43,-9.008l-3.794,-5.722l-2.843,-4.979l-3.687,-6.25l-5.052,-10.38l-3.473,-7.308l-3.994,-10.165l-3.044,-9.423l-4.509,-15.773l-2.923,-15.452l-2.073,-16.931l-0.609,-10.58l-0.307,-3.914l-0.066,-15.974l1.541,-23.904l2.913,-22.525l6.842,-28.333l4.163,-15.117l7.142,-21.668l8.093,-20.925l9.043,-20.182l7.121,-13.417l3.507,-6.444l7.436,-12.252l8.6,-12.567l10.508,-13.831l8.7,-10.345l4.879,-5.065l5.514,-5.487l8.801,-8.123l7.315,-6.223l6.357,-4.215l4.558,-3.479l10.172,-6.745l4.98,-2.843l9.215,-4.737l10.801,-4.416l9.53,-3.573l13.337,-3.352l12.487,-1.873l12.802,-0.708l12.587,0.349l10.151,1.506Z" style="fill:url(#_Linear5);fill-rule:nonzero;"/><path d="M383.058,271.052l8.661,3.465l6.564,4.741l5.835,6.565l3.555,5.653l3.008,7.02l2.005,8.205l-0.547,1.367l-1.458,-1.641l-3.373,-6.109l-6.108,-7.203l-5.652,-4.377l-9.116,-3.648l-9.299,-0.548l-5.653,0.911l-6.199,2.279l-5.106,2.187l-7.932,5.287l-8.753,8.66l-7.203,8.751l-4.924,7.019l-5.197,9.025l-7.842,19.6l-3.374,12.399l-2.919,15.225l-1.551,13.128l-0.731,15.043l0.638,12.946l0.454,10.758l1.093,10.484l1.093,7.84l1.276,10.029l2.005,10.849l1.184,6.29l1.367,5.835l2.187,10.394l2.278,8.843l2.552,9.482l2.734,9.026l2.096,6.655l2.917,8.57l1.732,4.923l2.279,6.2l1.731,4.923l0.182,2.188l1.459,1.641l1.732,4.923l5.195,12.126l2.37,4.649l4.284,9.117l2.37,4.65l3.92,7.385l6.745,12.217l8.204,13.858l3.829,6.291l4.558,7.111l3.373,6.109l0.182,2.188l-3.555,-3.009l-8.113,-7.477l-6.199,-5.653l-7.201,-7.112l-16.044,-18.053l-5.378,-6.382l-6.472,-8.935l-4.011,-5.835l-5.56,-8.57l-5.104,-8.388l-3.373,-6.109l-3.92,-7.385l-2.917,-5.926l-2.371,-4.65l-1.914,-4.468l-1.276,-2.097l0.365,-0.911l-0.911,-0.365l-1.732,-4.924l-3.008,-7.02l-1.731,-4.923l-2.552,-6.838l-2.096,-6.655l-2.369,-7.294l-2.643,-10.576l-2.37,-9.938l-2.46,-11.031l-1.094,-5.197l-1.914,-12.4l-1.275,-10.028l-0.819,-12.49l-0.455,-13.402l0.274,-9.937l0.73,-9.755l1.916,-14.04l2.189,-10.757l2.098,-9.208l1.55,-5.197l4.468,-12.489l7.204,-14.039l6.018,-9.754l7.75,-10.119l6.656,-7.384l5.106,-4.831l4.923,-4.376l8.753,-6.016l6.109,-3.373l8.935,-3.828l8.388,-2.461l7.841,-1.094l8.388,0.183l6.472,1.004Z" style="fill:url(#_Linear6);fill-rule:nonzero;"/><path d="M226.237,398.672l1.185,1.003l-2.098,9.208l-2.554,14.313l-1.186,12.217l0.091,6.382l0.911,10.94l1.64,9.117l2.005,8.206l2.917,8.57l2.279,6.199l4.375,10.212l3.373,6.109l3.099,5.47l4.102,6.929l8.751,12.491l7.384,9.3l7.566,8.844l7.749,8.388l11.304,11.397l16.045,15.409l10.027,9.3l6.199,5.653l23.702,20.059l-0.365,0.911l-4.285,-1.185l-12.763,-5.106l-11.031,-5.471l-7.84,-4.195l-9.755,-6.018l-13.31,-9.027l-16.5,-12.947l-9.025,-7.841l-9.116,-8.935l-9.207,-10.03l-4.922,-6.2l-3.737,-5.197l-5.56,-8.57l-4.102,-6.929l-3.919,-7.385l-3.737,-7.84l-1.458,-4.285l-1.367,-3.191l-2.37,-7.294l-2.096,-9.3l-1.367,-8.478l-0.637,-10.302l0.822,-13.948l2.554,-14.313l6.566,-16.41l7.294,-12.945l2.371,-3.282Z" style="fill:url(#_Linear7);fill-rule:nonzero;"/></g><defs><linearGradient id="_Linear1" x1="0" y1="0" x2="1" y2="0" gradientUnits="userSpaceOnUse" gradientTransform="matrix(44191.003956,0,0,49657.487307,-29696.371963,9631.34649)"><stop offset="0" style="stop-color:#d587d4;stop-opacity:1"/><stop offset="1" style="stop-color:#7850e2;stop-opacity:1"/></linearGradient><radialGradient id="_Radial2" cx="0" cy="0" r="1" gradientUnits="userSpaceOnUse" gradientTransform="matrix(44191.003956,0,0,49657.487307,-24744.602491,-1323.337275)"><stop offset="0" style="stop-color:#d587d4;stop-opacity:1"/><stop offset="0.47" style="stop-color:#8d5cdf;stop-opacity:1"/><stop offset="1" style="stop-color:#7850e2;stop-opacity:1"/></radialGradient><linearGradient id="_Linear3" x1="0" y1="0" x2="1" y2="0" gradientUnits="userSpaceOnUse" gradientTransform="matrix(44191.003956,0,0,49657.487307,-24397.921163,3459.655821)"><stop offset="0" style="stop-color:#d587d4;stop-opacity:1"/><stop offset="0.47" style="stop-color:#8d5cdf;stop-opacity:1"/><stop offset="1" style="stop-color:#7850e2;stop-opacity:1"/></linearGradient><linearGradient id="_Linear4" x1="0" y1="0" x2="1" y2="0" gradientUnits="userSpaceOnUse" gradientTransform="matrix(44191.003956,0,0,49657.487307,-24669.000928,-1406.273963)"><stop offset="0" style="stop-color:#d587d4;stop-opacity:1"/><stop offset="1" style="stop-color:#7850e2;stop-opacity:1"/></linearGradient><linearGradient id="_Linear5" x1="0" y1="0" x2="1" y2="0" gradientUnits="userSpaceOnUse" gradientTransform="matrix(-147.604634,728.481532,-728.481532,-147.604634,1218.706483,268.965439)"><stop offset="0" style="stop-color:#a4b2e2;stop-opacity:1"/><stop offset="1" style="stop-color:#d386d4;stop-opacity:1"/></linearGradient><linearGradient id="_Linear6" x1="0" y1="0" x2="1" y2="0" gradientUnits="userSpaceOnUse" gradientTransform="matrix(-127.481159,318.620805,-318.620805,-127.481159,420.663533,286.097744)"><stop offset="0" style="stop-color:#a4b2e2;stop-opacity:1"/><stop offset="1" style="stop-color:#d386d4;stop-opacity:1"/></linearGradient><linearGradient id="_Linear7" x1="0" y1="0" x2="1" y2="0" gradientUnits="userSpaceOnUse" gradientTransform="matrix(-58.542987,146.319769,-146.319769,-58.542987,313.299855,433.506167)"><stop offset="0" style="stop-color:#a4b2e2;stop-opacity:1"/><stop offset="1" style="stop-color:#d386d4;stop-opacity:1"/></linearGradient></defs></svg>